<?xml version="1.0" encoding="utf-8"?>
<!-- Generator: Adobe Illustrator 17.1.0, SVG Export Plug-In . SVG Version: 6.00 Build 0)  -->
<!DOCTYPE svg PUBLIC "-//W3C//DTD SVG 1.1//EN" "http://www.w3.org/Graphics/SVG/1.1/DTD/svg11.dtd">
<svg version="1.1" xmlns="http://www.w3.org/2000/svg" xmlns:xlink="http://www.w3.org/1999/xlink" x="0px" y="0px"
	 viewBox="0 0 360 76" enable-background="new 0 0 360 76" xml:space="preserve">
<g id="background" display="none">
	<rect x="-17" y="-10.986" display="inline" width="396" height="396"/>
</g>
<g id="Layer_1">
	<g>
		<path fill="#FFFFFF" d="M0.354,51.429V0h8.414v26.99c3.128-5.275,8.176-7.913,15.143-7.913c5.491,0,9.992,2.015,13.505,6.043
			c3.513,4.03,5.27,9.225,5.27,15.583c0,6.945-1.941,12.491-5.823,16.638c-3.882,4.146-8.613,6.22-14.191,6.22
			c-6.702,0-11.75-2.666-15.145-8l-0.354,7.033H0C0.236,59.897,0.354,56.176,0.354,51.429z M8.591,38.242v6.944
			c0,3.165,1.188,5.935,3.565,8.308c2.375,2.374,5.32,3.561,8.833,3.561c4.104,0,7.358-1.443,9.765-4.331
			c2.405-2.886,3.609-6.776,3.609-11.67c0-4.542-1.196-8.271-3.587-11.187c-2.391-2.915-5.595-4.373-9.609-4.373
			c-3.542,0-6.524,1.282-8.945,3.846C9.801,31.905,8.591,34.872,8.591,38.242z"/>
		<path fill="#FFFFFF" d="M77.403,36.835v15.561c0,4.22,0.236,7.62,0.708,10.198h-7.528l-0.974-5.451
			c-3.218,4.279-7.735,6.418-13.55,6.418c-4.074,0-7.336-1.194-9.786-3.582c-2.451-2.389-3.675-5.268-3.675-8.639
			c0-5.156,2.258-9.098,6.775-11.823c4.517-2.725,11.114-4.088,19.794-4.088v-0.792c0-3.017-0.835-5.37-2.502-7.055
			c-1.667-1.685-4.14-2.527-7.417-2.527c-4.369,0-8.266,1.085-11.69,3.253l-1.86-5.363c4.133-2.578,9.063-3.868,14.79-3.868
			c5.58,0,9.793,1.524,12.643,4.571C75.979,26.697,77.403,31.093,77.403,36.835z M69.343,48.088v-7.033
			c-6.907,0-11.706,0.821-14.392,2.462c-2.686,1.641-4.029,3.897-4.029,6.769c0,2.256,0.672,4.022,2.015,5.297
			c1.343,1.275,3.122,1.912,5.336,1.912c3.129,0,5.757-0.96,7.882-2.879C68.281,52.696,69.343,50.521,69.343,48.088z"/>
		<path fill="#FFFFFF" d="M113.979,54.857l1.328,6.154c-3.631,1.699-7.912,2.549-12.842,2.549c-6.613,0-11.955-2.006-16.029-6.022
			c-4.073-4.015-6.111-9.245-6.111-15.692c0-6.71,2.192-12.183,6.576-16.418c4.384-4.234,10.133-6.351,17.248-6.351
			c4.31,0,8.088,0.791,11.336,2.374l-1.772,6.242c-2.716-1.406-5.874-2.11-9.476-2.11c-4.694,0-8.45,1.473-11.27,4.417
			c-2.819,2.946-4.229,6.719-4.229,11.319c0,4.777,1.431,8.579,4.295,11.407c2.863,2.829,6.509,4.242,10.937,4.242
			C107.394,56.967,110.73,56.264,113.979,54.857z"/>
		<path fill="#FFFFFF" d="M126.377,0l0.177,39.385c1.092-1.524,2.436-3.18,4.03-4.967l12.709-14.374H153.3l-17.093,17.407
			l19.572,25.143h-10.184l-15.056-20.308l-4.162,4.484v15.824h-8.237V0H126.377z"/>
		<path fill="#FFFFFF" d="M156.31,80V34.021c0-5.713-0.118-10.373-0.355-13.977h7.352l0.443,7.385h0.177
			c3.571-5.568,8.885-8.351,15.941-8.351c5.372,0,9.845,2.015,13.417,6.043c3.571,4.03,5.358,9.195,5.358,15.496
			c0,7.004-1.926,12.578-5.778,16.725c-3.853,4.146-8.657,6.22-14.414,6.22c-2.922,0-5.601-0.587-8.036-1.758
			c-2.436-1.172-4.333-2.842-5.69-5.011h-0.177V80H156.31z M164.546,38.153v6.858c0,3.428,1.202,6.308,3.608,8.637
			c2.406,2.33,5.306,3.494,8.701,3.494c4.133,0,7.41-1.457,9.831-4.373c2.42-2.916,3.631-6.85,3.631-11.802
			c0-4.454-1.196-8.132-3.588-11.033c-2.391-2.901-5.564-4.352-9.52-4.352c-2.54,0-4.871,0.725-6.996,2.176
			c-2.126,1.45-3.603,3.224-4.428,5.318C164.959,35.172,164.546,36.864,164.546,38.153z"/>
		<path fill="#FFFFFF" d="M233.358,36.835v15.561c0,4.22,0.236,7.62,0.708,10.198h-7.527l-0.975-5.451
			c-3.218,4.279-7.735,6.418-13.55,6.418c-4.074,0-7.336-1.194-9.786-3.582c-2.451-2.389-3.675-5.268-3.675-8.639
			c0-5.156,2.258-9.098,6.774-11.823c4.517-2.725,11.114-4.088,19.794-4.088v-0.792c0-3.017-0.834-5.37-2.502-7.055
			c-1.668-1.685-4.14-2.527-7.418-2.527c-4.368,0-8.266,1.085-11.689,3.253l-1.86-5.363c4.134-2.578,9.063-3.868,14.79-3.868
			c5.58,0,9.793,1.524,12.643,4.571C231.934,26.697,233.358,31.093,233.358,36.835z M225.298,48.088v-7.033
			c-6.906,0-11.704,0.821-14.391,2.462c-2.686,1.641-4.029,3.897-4.029,6.769c0,2.256,0.671,4.022,2.015,5.297
			c1.343,1.275,3.122,1.912,5.336,1.912c3.13,0,5.757-0.96,7.883-2.879C224.236,52.696,225.298,50.521,225.298,48.088z"/>
		<path fill="#FFFFFF" d="M269.933,54.857l1.33,6.154c-3.633,1.699-7.912,2.549-12.841,2.549c-6.614,0-11.957-2.006-16.032-6.022
			c-4.072-4.015-6.109-9.245-6.109-15.692c0-6.71,2.192-12.183,6.575-16.418c4.385-4.234,10.132-6.351,17.247-6.351
			c4.311,0,8.09,0.791,11.336,2.374l-1.771,6.242c-2.716-1.406-5.875-2.11-9.477-2.11c-4.693,0-8.45,1.473-11.27,4.417
			c-2.818,2.946-4.229,6.719-4.229,11.319c0,4.777,1.431,8.579,4.296,11.407c2.862,2.829,6.509,4.242,10.938,4.242
			C263.351,56.967,266.686,56.264,269.933,54.857z"/>
		<path fill="#FFFFFF" d="M282.333,0l0.177,39.385c1.091-1.524,2.435-3.18,4.028-4.967l12.71-14.374h10.007l-17.092,17.407
			l19.571,25.143h-10.186l-15.054-20.308l-4.162,4.484v15.824h-8.237V0H282.333z"/>
	</g>
	<linearGradient id="SVGID_1_" gradientUnits="userSpaceOnUse" x1="302.7871" y1="41.3189" x2="360" y2="41.3189">
		<stop  offset="0" style="stop-color:#677FA5"/>
		<stop  offset="0.3043" style="stop-color:#667DA2"/>
		<stop  offset="0.5487" style="stop-color:#61779B"/>
		<stop  offset="0.7722" style="stop-color:#596E8F"/>
		<stop  offset="0.9822" style="stop-color:#4E617F"/>
		<stop  offset="1" style="stop-color:#4D607E"/>
	</linearGradient>
	<polygon fill="url(#SVGID_1_)" points="360,62.594 322.362,62.594 302.787,37.451 319.887,20.044 360,20.044 	"/>
	<g display="none">
		<path display="inline" fill="#FFFFFF" stroke="#54758B" stroke-width="3" stroke-miterlimit="10" d="M325.971,31.024l6.694-1.804
			v5.852h4.92v5.016h-4.92v7.568c0,1.424,0.211,2.424,0.632,3.003c0.421,0.579,1.112,0.869,2.073,0.869
			c0.886,0,1.578-0.073,2.082-0.22l0.045,5.148c-1.079,0.41-2.571,0.614-4.48,0.614c-2.065,0-3.759-0.61-5.072-1.836
			c-1.315-1.224-1.975-3.384-1.975-6.479v-8.667h-2.925v-5.016h2.925V31.024z"/>
		<path display="inline" fill="#FFFFFF" stroke="#54758B" stroke-width="3" stroke-miterlimit="10" d="M346.981,56.586h-6.871v-16.5
			h-2.836v-5.016h2.836V34.28c0-1.805,0.362-3.469,1.086-4.994c0.725-1.526,1.792-2.659,3.203-3.399
			c1.41-0.741,2.936-1.112,4.576-1.112c1.184,0,2.38,0.146,3.591,0.439l-0.222,5.236c-0.664-0.204-1.405-0.308-2.215-0.308
			c-1.021,0-1.807,0.342-2.36,1.024c-0.555,0.681-0.832,1.616-0.832,2.804v1.1h4.39v5.016h-4.346V56.586z"/>
	</g>
	<g display="none">
		<path display="inline" fill="#FFFFFF" d="M325.971,31.024l6.694-1.804v5.852h4.92v5.016h-4.92v7.568
			c0,1.424,0.211,2.424,0.632,3.003c0.421,0.579,1.112,0.869,2.073,0.869c0.886,0,1.578-0.073,2.082-0.22l0.045,5.148
			c-1.079,0.41-2.571,0.614-4.48,0.614c-2.065,0-3.759-0.61-5.072-1.836c-1.315-1.224-1.975-3.384-1.975-6.479v-8.667h-2.925v-5.016
			h2.925V31.024z"/>
		<path display="inline" fill="#FFFFFF" d="M346.981,56.586h-6.871v-16.5h-2.836v-5.016h2.836V34.28
			c0-1.805,0.362-3.469,1.086-4.994c0.725-1.526,1.792-2.659,3.203-3.399c1.41-0.741,2.936-1.112,4.576-1.112
			c1.184,0,2.38,0.146,3.591,0.439l-0.222,5.236c-0.664-0.204-1.405-0.308-2.215-0.308c-1.021,0-1.807,0.342-2.36,1.024
			c-0.555,0.681-0.832,1.616-0.832,2.804v1.1h4.39v5.016h-4.346V56.586z"/>
	</g>
	<g display="none">
		<g display="inline">
			<path fill="#FFFFFF" d="M327.987,57.385c-5.621,0-9.7-4.857-9.7-11.549c-0.023-3.717,1.161-6.97,3.335-9.157
				c1.815-1.827,4.232-2.833,6.806-2.833c2.186,0,4.036,0.607,5.267,1.698V24.646h7.691v25.328c0,2.422,0.088,4.958,0.175,6.397
				l0.032,0.53h-6.933l-0.199-2.352C332.993,56.344,330.657,57.385,327.987,57.385z M330.188,39.997
				c-3.039,0-4.122,2.903-4.122,5.619c0,3.357,1.562,5.443,4.078,5.443c1.698,0,3.076-1.132,3.429-2.816
				c0.078-0.433,0.121-0.935,0.121-1.438v-2.817c0-0.33,0-0.782-0.076-1.124C333.297,41.437,332.112,39.997,330.188,39.997z"/>
			<path fill="#F04923" d="M340.886,25.146v24.828c0,2.421,0.088,4.975,0.176,6.427h-5.942l-0.265-3.125h-0.132
				c-1.32,2.377-3.962,3.61-6.735,3.61c-5.106,0-9.2-4.358-9.2-11.049c-0.045-7.264,4.49-11.49,9.641-11.49
				c2.685,0,4.71,0.968,5.679,2.421h0.088V25.146H340.886 M330.145,51.559c1.937,0,3.521-1.321,3.918-3.214
				c0.088-0.484,0.132-1.012,0.132-1.541v-2.817c0-0.352,0-0.836-0.088-1.232c-0.396-1.761-1.85-3.258-3.918-3.258
				c-3.082,0-4.622,2.729-4.622,6.119C325.566,49.27,327.371,51.559,330.145,51.559 M341.886,24.146h-1h-6.691h-1v1v9.408
				c-1.259-0.781-2.901-1.207-4.767-1.207c-2.707,0-5.25,1.059-7.16,2.981c-2.268,2.282-3.504,5.662-3.48,9.515
				c0,6.976,4.29,12.043,10.2,12.043c2.385,0,4.521-0.791,6.069-2.188l0.067,0.788l0.078,0.916h0.919h5.942h1.062l-0.064-1.06
				c-0.087-1.431-0.174-3.955-0.174-6.367V25.146V24.146L341.886,24.146z M330.145,50.559c-2.207,0-3.578-1.894-3.578-4.943
				c0-2.475,0.952-5.119,3.622-5.119c1.647,0,2.665,1.244,2.942,2.477c0.064,0.286,0.064,0.706,0.064,1.013v2.817
				c0,0.474-0.04,0.945-0.116,1.362C332.781,49.587,331.6,50.559,330.145,50.559L330.145,50.559z"/>
		</g>
		<g display="inline">
			<path fill="#FFFFFF" d="M351.895,57.341c-2.174,0-4.147-0.728-5.416-1.996c-1.345-1.394-1.996-3.595-1.996-6.737v-8.304h-2.861
				v-5.93h2.861v-3.887l7.56-2.08v5.967h4.799v5.93h-4.799v7.292c0,2.762,0.753,3.286,2.142,3.286c0.857,0,1.278-0.037,1.876-0.165
				l0.6-0.128l0.052,6.027l-0.33,0.122C355.387,57.105,353.626,57.341,351.895,57.341z"/>
			<path fill="#F04923" d="M351.542,29.063v5.811h4.799v4.93h-4.799v7.792c0,2.597,0.66,3.786,2.642,3.786
				c0.924,0,1.364-0.044,1.98-0.176l0.044,5.063c-0.836,0.308-2.465,0.572-4.314,0.572c-2.157,0-3.962-0.748-5.062-1.849
				c-1.232-1.277-1.85-3.346-1.85-6.383v-8.804h-2.861v-4.93h2.861v-4.006L351.542,29.063 M352.542,27.751l-1.265,0.348l-6.56,1.805
				l-0.735,0.202v0.762v3.006h-1.861h-1v1v4.93v1h1h1.861v7.804c0,3.278,0.697,5.593,2.13,7.078
				c1.374,1.374,3.477,2.155,5.782,2.155c1.813,0,3.599-0.243,4.659-0.634l0.66-0.243l-0.006-0.704l-0.044-5.062l-0.011-1.226
				l-1.198,0.256c-0.507,0.108-0.865,0.154-1.771,0.154c-0.844,0-1.642,0-1.642-2.786v-6.792h3.799h1v-1v-4.93v-1h-1h-3.799v-4.811
				V27.751L352.542,27.751z"/>
		</g>
	</g>
	<g>
		<path fill="#FFFFFF" stroke="#5A7399" stroke-width="4" stroke-miterlimit="10" d="M338.356,57.133
			c-1.284,0.571-3.71,1.046-6.469,1.046c-7.515,0-12.318-4.566-12.318-11.89c0-6.802,4.661-12.366,13.317-12.366
			c1.902,0,3.995,0.333,5.518,0.904l-1.142,5.375c-0.856-0.381-2.141-0.714-4.043-0.714c-3.805,0-6.278,2.711-6.23,6.516
			c0,4.281,2.854,6.516,6.373,6.516c1.712,0,3.044-0.286,4.138-0.713L338.356,57.133z"/>
		<path fill="#FFFFFF" stroke="#5A7399" stroke-width="4" stroke-miterlimit="10" d="M341.161,51.378
			c1.332,0.809,4.091,1.76,6.23,1.76c2.188,0,3.092-0.761,3.092-1.95c0-1.189-0.714-1.76-3.425-2.663
			c-4.804-1.617-6.658-4.233-6.61-6.992c0-4.328,3.709-7.61,9.465-7.61c2.711,0,5.136,0.618,6.563,1.332l-1.284,4.994
			c-1.047-0.571-3.044-1.332-5.042-1.332c-1.76,0-2.759,0.713-2.759,1.902c0,1.094,0.904,1.665,3.758,2.664
			c4.423,1.522,6.278,3.757,6.325,7.182c0,4.328-3.424,7.515-10.083,7.515c-3.044,0-5.755-0.666-7.515-1.617L341.161,51.378z"/>
	</g>
	<g>
		<path fill="#FFFFFF" d="M338.356,57.133c-1.284,0.571-3.71,1.046-6.469,1.046c-7.515,0-12.318-4.566-12.318-11.89
			c0-6.802,4.661-12.366,13.317-12.366c1.902,0,3.995,0.333,5.518,0.904l-1.142,5.375c-0.856-0.381-2.141-0.714-4.043-0.714
			c-3.805,0-6.278,2.711-6.23,6.516c0,4.281,2.854,6.516,6.373,6.516c1.712,0,3.044-0.286,4.138-0.713L338.356,57.133z"/>
		<path fill="#FFFFFF" d="M341.161,51.378c1.332,0.809,4.091,1.76,6.23,1.76c2.188,0,3.092-0.761,3.092-1.95
			c0-1.189-0.714-1.76-3.425-2.663c-4.804-1.617-6.658-4.233-6.61-6.992c0-4.328,3.709-7.61,9.465-7.61
			c2.711,0,5.136,0.618,6.563,1.332l-1.284,4.994c-1.047-0.571-3.044-1.332-5.042-1.332c-1.76,0-2.759,0.713-2.759,1.902
			c0,1.094,0.904,1.665,3.758,2.664c4.423,1.522,6.278,3.757,6.325,7.182c0,4.328-3.424,7.515-10.083,7.515
			c-3.044,0-5.755-0.666-7.515-1.617L341.161,51.378z"/>
	</g>
</g>
</svg>
