<?xml version="1.0" encoding="utf-8"?>
<!-- Generator: Adobe Illustrator 15.0.0, SVG Export Plug-In  -->
<!DOCTYPE svg PUBLIC "-//W3C//DTD SVG 1.1//EN" "http://www.w3.org/Graphics/SVG/1.1/DTD/svg11.dtd" [
	<!ENTITY ns_flows "http://ns.adobe.com/Flows/1.0/">
]>
<svg version="1.1"
	 xmlns="http://www.w3.org/2000/svg" xmlns:xlink="http://www.w3.org/1999/xlink" xmlns:a="http://ns.adobe.com/AdobeSVGViewerExtensions/3.0/"
	 x="0px" y="0px" width="360px" height="76px" viewBox="17 10.986 360 76"
	 overflow="visible" enable-background="new 17 10.986 360 76" xml:space="preserve">
<defs>
</defs>
<rect display="none" width="396" height="396"/>
<path fill="#FFFFFF" d="M17.354,62.415V10.986h8.414v26.99c3.128-5.275,8.176-7.913,15.144-7.913c5.491,0,9.992,2.015,13.505,6.043
	c3.513,4.03,5.27,9.225,5.27,15.583c0,6.945-1.941,12.491-5.823,16.638c-3.882,4.146-8.613,6.22-14.191,6.22
	c-6.702,0-11.75-2.666-15.145-8l-0.354,7.033H17C17.236,70.884,17.354,67.163,17.354,62.415z M25.591,49.229v6.944
	c0,3.165,1.188,5.935,3.565,8.308c2.375,2.374,5.32,3.561,8.833,3.561c4.104,0,7.358-1.443,9.765-4.331
	c2.405-2.886,3.609-6.776,3.609-11.67c0-4.542-1.196-8.271-3.587-11.187c-2.391-2.915-5.595-4.373-9.609-4.373
	c-3.542,0-6.524,1.282-8.945,3.846C26.801,42.892,25.591,45.858,25.591,49.229z"/>
<path fill="#FFFFFF" d="M94.403,47.821v15.561c0,4.22,0.236,7.62,0.708,10.198h-7.528l-0.974-5.451
	c-3.218,4.279-7.735,6.418-13.55,6.418c-4.074,0-7.335-1.194-9.786-3.582c-2.451-2.389-3.675-5.268-3.675-8.639
	c0-5.156,2.258-9.098,6.775-11.823c4.517-2.725,11.114-4.088,19.794-4.088v-0.792c0-3.018-0.834-5.37-2.502-7.055
	c-1.667-1.685-4.14-2.527-7.417-2.527c-4.369,0-8.266,1.085-11.69,3.253l-1.86-5.363c4.133-2.578,9.063-3.868,14.79-3.868
	c5.58,0,9.793,1.524,12.643,4.571C92.979,37.683,94.403,42.079,94.403,47.821z M86.343,59.074v-7.033
	c-6.907,0-11.706,0.821-14.392,2.462c-2.686,1.641-4.029,3.897-4.029,6.769c0,2.256,0.672,4.022,2.015,5.297
	c1.343,1.275,3.122,1.912,5.336,1.912c3.129,0,5.757-0.959,7.882-2.879C85.281,63.683,86.343,61.507,86.343,59.074z"/>
<path fill="#FFFFFF" d="M130.979,65.844l1.328,6.154c-3.631,1.699-7.912,2.549-12.842,2.549c-6.613,0-11.955-2.006-16.029-6.022
	c-4.073-4.015-6.111-9.245-6.111-15.692c0-6.71,2.192-12.183,6.576-16.418c4.384-4.234,10.133-6.351,17.248-6.351
	c4.31,0,8.088,0.791,11.336,2.374l-1.772,6.242c-2.716-1.406-5.874-2.11-9.476-2.11c-4.694,0-8.45,1.473-11.27,4.417
	c-2.819,2.946-4.229,6.719-4.229,11.319c0,4.777,1.431,8.579,4.295,11.407c2.863,2.829,6.509,4.242,10.937,4.242
	C124.395,67.954,127.73,67.25,130.979,65.844z"/>
<path fill="#FFFFFF" d="M143.377,10.986l0.177,39.385c1.092-1.524,2.436-3.18,4.03-4.967l12.708-14.374H170.3l-17.093,17.407
	l19.572,25.143h-10.184l-15.056-20.308l-4.162,4.484V73.58h-8.237V10.986H143.377z"/>
<path fill="#FFFFFF" d="M173.31,90.986V45.008c0-5.713-0.118-10.373-0.354-13.978h7.352l0.443,7.385h0.177
	c3.571-5.568,8.885-8.352,15.941-8.352c5.373,0,9.845,2.015,13.417,6.043c3.571,4.03,5.358,9.195,5.358,15.496
	c0,7.004-1.926,12.578-5.778,16.725c-3.853,4.146-8.657,6.22-14.414,6.22c-2.922,0-5.601-0.586-8.036-1.758
	c-2.436-1.172-4.333-2.842-5.69-5.011h-0.177v23.208H173.31z M181.546,49.14v6.858c0,3.428,1.202,6.308,3.608,8.637
	c2.406,2.33,5.306,3.494,8.701,3.494c4.133,0,7.41-1.457,9.832-4.373c2.42-2.916,3.631-6.85,3.631-11.802
	c0-4.454-1.196-8.132-3.588-11.033c-2.391-2.901-5.564-4.352-9.52-4.352c-2.54,0-4.872,0.725-6.997,2.176
	c-2.126,1.45-3.603,3.224-4.428,5.318C181.959,46.159,181.546,47.85,181.546,49.14z"/>
<path fill="#FFFFFF" d="M250.358,47.821v15.561c0,4.22,0.236,7.62,0.708,10.198h-7.527l-0.975-5.451
	c-3.218,4.279-7.735,6.418-13.55,6.418c-4.074,0-7.336-1.194-9.786-3.582c-2.451-2.389-3.675-5.268-3.675-8.639
	c0-5.156,2.258-9.098,6.774-11.823s11.114-4.088,19.794-4.088v-0.792c0-3.018-0.834-5.37-2.502-7.055
	c-1.668-1.685-4.14-2.527-7.418-2.527c-4.368,0-8.266,1.085-11.689,3.253l-1.86-5.363c4.134-2.578,9.063-3.868,14.79-3.868
	c5.58,0,9.793,1.524,12.644,4.571C248.934,37.683,250.358,42.079,250.358,47.821z M242.298,59.074v-7.033
	c-6.906,0-11.704,0.821-14.391,2.462c-2.686,1.641-4.029,3.897-4.029,6.769c0,2.256,0.671,4.022,2.015,5.297
	c1.343,1.275,3.122,1.912,5.336,1.912c3.13,0,5.757-0.959,7.883-2.879C241.236,63.683,242.298,61.507,242.298,59.074z"/>
<path fill="#FFFFFF" d="M286.933,65.844l1.33,6.154c-3.633,1.699-7.912,2.549-12.841,2.549c-6.614,0-11.957-2.006-16.032-6.022
	c-4.072-4.015-6.109-9.245-6.109-15.692c0-6.71,2.192-12.183,6.575-16.418c4.385-4.234,10.132-6.351,17.247-6.351
	c4.311,0,8.09,0.791,11.336,2.374l-1.771,6.242c-2.716-1.406-5.875-2.11-9.477-2.11c-4.693,0-8.45,1.473-11.27,4.417
	c-2.818,2.946-4.229,6.719-4.229,11.319c0,4.777,1.431,8.579,4.296,11.407c2.862,2.829,6.509,4.242,10.938,4.242
	C280.351,67.954,283.687,67.25,286.933,65.844z"/>
<path fill="#FFFFFF" d="M299.333,10.986l0.177,39.385c1.091-1.524,2.435-3.18,4.028-4.967l12.71-14.374h10.007l-17.092,17.407
	l19.571,25.143h-10.186l-15.054-20.308l-4.162,4.484V73.58h-8.237V10.986H299.333z"/>
<linearGradient id="SVGID_1_" gradientUnits="userSpaceOnUse" x1="348.3936" y1="73.5801" x2="348.3936" y2="31.0303">
	<stop  offset="0" style="stop-color:#F04923"/>
	<stop  offset="0.3234" style="stop-color:#EC4724"/>
	<stop  offset="0.5831" style="stop-color:#E44026"/>
	<stop  offset="0.8198" style="stop-color:#D83329"/>
	<stop  offset="1" style="stop-color:#CB242B"/>
</linearGradient>
<polygon fill="url(#SVGID_1_)" points="377,73.58 339.362,73.58 319.787,48.438 336.887,31.03 377,31.03 "/>
<path display="none" fill="#FFFFFF" stroke="#54758B" stroke-width="3" stroke-miterlimit="10" d="M342.971,42.01l6.694-1.804v5.852
	h4.92v5.016h-4.92v7.568c0,1.424,0.211,2.424,0.632,3.003s1.112,0.869,2.073,0.869c0.886,0,1.578-0.073,2.082-0.22l0.045,5.148
	c-1.079,0.41-2.571,0.614-4.479,0.614c-2.065,0-3.759-0.61-5.072-1.836c-1.315-1.224-1.975-3.384-1.975-6.479v-8.667h-2.925v-5.016
	h2.925V42.01z"/>
<path display="none" fill="#FFFFFF" stroke="#54758B" stroke-width="3" stroke-miterlimit="10" d="M363.981,67.573h-6.871v-16.5
	h-2.836v-5.016h2.836v-0.791c0-1.805,0.362-3.469,1.086-4.994c0.725-1.526,1.792-2.659,3.203-3.399
	c1.41-0.741,2.937-1.112,4.576-1.112c1.184,0,2.38,0.146,3.591,0.439l-0.222,5.236c-0.664-0.204-1.405-0.308-2.215-0.308
	c-1.021,0-1.807,0.342-2.36,1.024c-0.555,0.681-0.832,1.616-0.832,2.804v1.1h4.39v5.016h-4.346V67.573z"/>
<path display="none" fill="#FFFFFF" d="M342.971,42.01l6.694-1.804v5.852h4.92v5.016h-4.92v7.568c0,1.424,0.211,2.424,0.632,3.003
	s1.112,0.869,2.073,0.869c0.886,0,1.578-0.073,2.082-0.22l0.045,5.148c-1.079,0.41-2.571,0.614-4.479,0.614
	c-2.065,0-3.759-0.61-5.072-1.836c-1.315-1.224-1.975-3.384-1.975-6.479v-8.667h-2.925v-5.016h2.925V42.01z"/>
<path display="none" fill="#FFFFFF" d="M363.981,67.573h-6.871v-16.5h-2.836v-5.016h2.836v-0.791c0-1.805,0.362-3.469,1.086-4.994
	c0.725-1.526,1.792-2.659,3.203-3.399c1.41-0.741,2.937-1.112,4.576-1.112c1.184,0,2.38,0.146,3.591,0.439l-0.222,5.236
	c-0.664-0.204-1.405-0.308-2.215-0.308c-1.021,0-1.807,0.342-2.36,1.024c-0.555,0.681-0.832,1.616-0.832,2.804v1.1h4.39v5.016
	h-4.346V67.573z"/>
<g>
	<path fill="#FFFFFF" d="M344.987,68.372c-5.621,0-9.7-4.857-9.7-11.549c-0.023-3.717,1.161-6.97,3.335-9.157
		c1.815-1.827,4.232-2.833,6.806-2.833c2.186,0,4.036,0.607,5.267,1.698V35.632h7.691V60.96c0,2.422,0.088,4.958,0.175,6.397
		l0.032,0.53h-6.933l-0.199-2.352C349.993,67.33,347.657,68.372,344.987,68.372z M347.188,50.983c-3.039,0-4.122,2.903-4.122,5.619
		c0,3.357,1.562,5.443,4.078,5.443c1.698,0,3.076-1.132,3.429-2.816c0.078-0.433,0.121-0.935,0.121-1.438v-2.817
		c0-0.33,0-0.782-0.076-1.124C350.297,52.423,349.112,50.983,347.188,50.983z"/>
	<path fill="#F04923" d="M357.886,36.132V60.96c0,2.421,0.088,4.975,0.176,6.427h-5.942l-0.265-3.125h-0.132
		c-1.32,2.377-3.962,3.61-6.735,3.61c-5.106,0-9.2-4.358-9.2-11.049c-0.045-7.264,4.49-11.49,9.641-11.49
		c2.685,0,4.71,0.968,5.679,2.421h0.088V36.132H357.886 M347.145,62.545c1.937,0,3.521-1.321,3.918-3.214
		c0.088-0.484,0.132-1.012,0.132-1.541v-2.817c0-0.352,0-0.836-0.088-1.232c-0.396-1.761-1.85-3.258-3.918-3.258
		c-3.082,0-4.622,2.729-4.622,6.119C342.566,60.256,344.371,62.545,347.145,62.545 M358.886,35.132h-1h-6.691h-1v1v9.408
		c-1.26-0.781-2.901-1.207-4.767-1.207c-2.707,0-5.25,1.059-7.16,2.98c-2.269,2.282-3.504,5.662-3.48,9.516
		c0,6.976,4.29,12.043,10.2,12.043c2.385,0,4.521-0.791,6.068-2.188l0.067,0.789l0.077,0.916h0.919h5.942h1.062l-0.064-1.061
		c-0.087-1.431-0.174-3.955-0.174-6.367V36.132V35.132L358.886,35.132z M347.145,61.545c-2.207,0-3.578-1.894-3.578-4.943
		c0-2.475,0.951-5.119,3.622-5.119c1.647,0,2.665,1.244,2.942,2.478c0.063,0.286,0.063,0.706,0.063,1.013v2.817
		c0,0.474-0.04,0.945-0.116,1.362C349.78,60.573,348.6,61.545,347.145,61.545L347.145,61.545z"/>
</g>
<g>
	<path fill="#FFFFFF" d="M368.895,68.328c-2.174,0-4.147-0.728-5.416-1.996c-1.345-1.394-1.996-3.595-1.996-6.737v-8.304h-2.861
		v-5.93h2.861v-3.887l7.56-2.08v5.967h4.799v5.93h-4.799v7.292c0,2.762,0.753,3.286,2.142,3.286c0.857,0,1.278-0.037,1.876-0.165
		l0.6-0.128l0.052,6.027l-0.33,0.122C372.387,68.091,370.626,68.328,368.895,68.328z"/>
	<path fill="#F04923" d="M368.542,40.05v5.811h4.799v4.93h-4.799v7.792c0,2.597,0.66,3.786,2.642,3.786
		c0.924,0,1.364-0.044,1.98-0.176l0.044,5.062c-0.836,0.308-2.465,0.572-4.313,0.572c-2.157,0-3.962-0.749-5.062-1.849
		c-1.232-1.277-1.85-3.346-1.85-6.383v-8.804h-2.861v-4.93h2.861v-4.006L368.542,40.05 M369.542,38.737l-1.266,0.348l-6.56,1.805
		l-0.734,0.202v0.762v3.006h-1.861h-1v1v4.93v1h1h1.861v7.804c0,3.278,0.696,5.593,2.13,7.078c1.374,1.374,3.477,2.155,5.782,2.155
		c1.812,0,3.599-0.243,4.659-0.634l0.66-0.244l-0.006-0.704l-0.044-5.062l-0.011-1.226l-1.198,0.256
		c-0.507,0.108-0.864,0.154-1.771,0.154c-0.844,0-1.642,0-1.642-2.786v-6.792h3.799h1v-1v-4.93v-1h-1h-3.799V40.05V38.737
		L369.542,38.737z"/>
</g>
</svg>
